<svg width="600" height="360" viewBox="0 0 600 360" fill="none" xmlns="http://www.w3.org/2000/svg">
  <rect width="600" height="360" rx="32" fill="#0F1720"/>
  <rect x="32" y="32" width="536" height="64" rx="24" fill="#182434"/>
  <rect x="52" y="48" width="140" height="32" rx="16" fill="#233547"/>
  <rect x="32" y="116" width="536" height="212" rx="28" fill="#182434"/>
  <rect x="56" y="140" width="488" height="60" rx="18" fill="#233547"/>
  <rect x="56" y="212" width="220" height="92" rx="18" fill="#0F9D7A" fill-opacity="0.2" stroke="#34D399" stroke-width="2"/>
  <rect x="296" y="212" width="248" height="92" rx="18" fill="#233547"/>
  <rect x="80" y="160" width="160" height="12" rx="6" fill="#34D399"/>
  <rect x="264" y="160" width="120" height="12" rx="6" fill="#34D399"/>
  <rect x="408" y="160" width="120" height="12" rx="6" fill="#0F9D7A"/>
  <rect x="320" y="236" width="200" height="12" rx="6" fill="#34D399"/>
  <rect x="320" y="260" width="160" height="12" rx="6" fill="#0F9D7A"/>
  <rect x="320" y="284" width="128" height="12" rx="6" fill="#34D399"/>
</svg>

