<svg width="600" height="360" viewBox="0 0 600 360" fill="none" xmlns="http://www.w3.org/2000/svg">
  <rect width="600" height="360" rx="32" fill="#10171C"/>
  <rect x="32" y="32" width="536" height="64" rx="24" fill="#18222B"/>
  <rect x="52" y="48" width="160" height="32" rx="16" fill="#233544"/>
  <rect x="32" y="116" width="536" height="212" rx="28" fill="#18222B"/>
  <rect x="56" y="140" width="248" height="148" rx="20" fill="#0F9D7A" fill-opacity="0.2" stroke="#34D399" stroke-width="2"/>
  <rect x="328" y="140" width="216" height="148" rx="20" fill="#1E2933"/>
  <rect x="80" y="164" width="200" height="12" rx="6" fill="#34D399"/>
  <rect x="80" y="186" width="120" height="12" rx="6" fill="#0F9D7A"/>
  <rect x="80" y="208" width="160" height="12" rx="6" fill="#34D399"/>
  <rect x="80" y="230" width="140" height="12" rx="6" fill="#0F9D7A"/>
  <rect x="80" y="252" width="112" height="12" rx="6" fill="#34D399"/>
  <rect x="352" y="164" width="168" height="32" rx="16" fill="#253441"/>
  <rect x="352" y="208" width="168" height="56" rx="18" fill="#253441"/>
  <rect x="352" y="276" width="112" height="12" rx="6" fill="#34D399"/>
</svg>

