<svg width="600" height="360" viewBox="0 0 600 360" fill="none" xmlns="http://www.w3.org/2000/svg">
  <rect width="600" height="360" rx="32" fill="#F9F5FB"/>
  <rect x="32" y="32" width="536" height="296" rx="28" fill="#FFFFFF"/>
  <rect x="80" y="72" width="440" height="64" rx="24" fill="#F4ECF8"/>
  <rect x="80" y="152" width="200" height="120" rx="24" fill="#F1E4E8"/>
  <rect x="300" y="152" width="220" height="120" rx="24" fill="#E4F2FB"/>
  <rect x="80" y="284" width="440" height="44" rx="22" fill="#F1E4E8"/>
  <rect x="104" y="176" width="80" height="12" rx="6" fill="#D1E7DF"/>
  <rect x="104" y="198" width="120" height="12" rx="6" fill="#E2CAD2"/>
  <rect x="104" y="220" width="96" height="12" rx="6" fill="#D1E7DF"/>
  <rect x="324" y="176" width="120" height="12" rx="6" fill="#E2CAD2"/>
  <rect x="324" y="198" width="160" height="12" rx="6" fill="#D1E7DF"/>
  <rect x="324" y="220" width="100" height="12" rx="6" fill="#EBCAD9"/>
</svg>

